Coordinates
version=1
nRows=19
nColumns=33
inDegrees=yes

Units are S.I. units (second, meters, Newtons, ...)
Angles are in degrees.

endheader
time	ground_thorax_rot_x	ground_thorax_rot_y	ground_thorax_rot_z	ground_thorax_tx	ground_thorax_ty	ground_thorax_tz	clav_prot_r	clav_elev_r	scapula_abduction_r	scapula_elevation_r	scapula_upward_rot_r	scapula_winging_r	shoulder_elv_r	plane_of_elev_r	axial_rot_r	elbow_flexion_r	pro_sup_r	wrist_flex_r	wrist_dev_r	clav_prot_l	clav_elev_l	scapula_abduction_l	scapula_elevation_l	scapula_upward_rot_l	scapula_winging_l	shoulder_elv_l	plane_of_elev_l	axial_rot_l	elbow_flexion_l	pro_sup_l	wrist_flex_l	wrist_dev_l
      3.19000000	    -40.62699230	    -11.06865957	     14.10540603	   -243.08624712	    821.56612600	      1.02201471	     10.55857174	    -45.00000000	     40.53845997	    -45.00000000	    -45.00000000	   2418.84296678	   -826.33516199	    147.85257073	    179.99999979	   1442.73356316	     51.55082584	     26.20462424	     13.57953479	     15.23444535	     38.20633322	    -37.60831812	    -45.00000000	    -45.00000000	   -994.75681013	   -454.44819143	    133.05984912	   -155.88307755	   2165.51225080	     26.61080157	      8.19861263	    -22.70367779
      3.20000000	    -40.71110177	    -10.84566234	     14.05792628	   -243.34095973	    820.98679293	      0.90830515	     10.31995226	    -45.00000000	     40.45303943	    -45.00000000	    -45.00000000	   2418.98377950	   -826.45945284	    147.96978191	    179.99999979	   1442.87954931	     51.84039814	     26.24398794	     13.44213525	     15.28716268	     38.52517689	    -37.67438225	    -45.00000000	    -45.00000000	   -994.80184272	   -454.60147400	    133.19059086	   -156.34716585	   2165.62641986	     26.69513498	      8.35639429	    -22.90966865
      3.21000000	    -40.65898120	    -10.91180310	     14.24831151	   -243.37094580	    820.38630252	      0.82211037	     10.32664198	    -45.00000000	     40.44908195	    -45.00000000	    -45.00000000	   2418.97156850	   -826.51079458	    148.00198814	    179.99999979	   1442.79275664	     52.13126887	     26.32272056	     13.35674850	     15.36048911	     38.34603562	    -37.51425675	    -45.00000000	    -45.00000000	   -994.89919668	   -454.66568869	    133.21419073	   -156.37820001	   2165.57080778	     26.78794833	      8.19450430	    -22.83497326
      3.22000000	    -40.60790310	    -11.21934096	     14.76993496	   -243.19129591	    819.78055537	      0.76857836	     10.39339525	    -45.00000000	     40.15633587	    -45.00000000	    -45.00000000	   2419.03497805	   -826.45415553	    148.08225763	    179.99999979	   1442.54080569	     52.35635701	     26.27994940	     13.26860615	     15.48713245	     38.15117018	    -37.40757259	    -45.00000000	    -45.00000000	   -994.92556409	   -454.65464332	    133.24921355	   -156.23464903	   2165.28453144	     26.93515759	      8.08279609	    -22.78050046
      3.23000000	    -40.64378587	    -10.89463935	     14.45220765	   -242.82457200	    819.16922028	      0.73747409	     10.38256460	    -45.00000000	     40.33769971	    -45.00000000	    -45.00000000	   2419.03377456	   -826.66661123	    147.98846698	    179.99999979	   1442.80875954	     52.47757691	     26.37146241	     13.19010605	     15.41964505	     38.32075214	    -37.45436766	    -45.00000000	    -45.00000000	   -995.00010392	   -454.70254479	    133.14754204	   -156.11062953	   2165.41300019	     27.20179263	      8.08983472	    -22.90124203
      3.24000000	    -40.55496780	    -11.27455659	     14.97798863	   -242.30798502	    818.57731221	      0.71709518	     10.38935776	    -45.00000000	     40.29520946	    -45.00000000	    -45.00000000	   2419.16577851	   -826.58274178	    148.22309188	    179.99999979	   1442.60749114	     52.59362162	     26.30667038	     13.09898914	     15.55062252	     38.17478739	    -37.39293452	    -45.00000000	    -45.00000000	   -995.02436759	   -454.76833303	    133.24880015	   -155.88383020	   2165.42146316	     27.48406669	      7.90360188	    -22.92569246
      3.25000000	    -40.60819886	    -10.86374610	     14.51764674	   -241.67015558	    818.00425491	      0.69431398	     10.43238049	    -45.00000000	     40.39151751	    -45.00000000	    -45.00000000	   2419.14361198	   -826.84937561	    147.92346137	    179.99999979	   1442.87373167	     52.61308596	     26.38802911	     13.04033496	     15.44711612	     38.34494961	    -37.48169536	    -45.00000000	    -45.00000000	   -995.11288213	   -454.68567066	    133.07924237	   -155.89226759	   2165.54369387	     27.88712124	      7.86612762	    -23.05741992
      3.26000000	    -40.46924325	    -10.97064052	     14.80279718	   -240.96233119	    817.47101033	      0.66091651	     10.45525396	    -45.00000000	     40.32536794	    -45.00000000	    -45.00000000	   2419.20477563	   -826.80197196	    148.03431592	    179.99999979	   1442.77129098	     52.68307532	     26.35815301	     12.97019797	     15.46411961	     38.21056534	    -37.40258028	    -45.00000000	    -45.00000000	   -995.16142729	   -454.62516781	    132.99945904	   -155.72734668	   2165.58782709	     28.38894071	      7.63574771	    -23.08079732
      3.27000000	    -40.34890323	    -11.33261628	     15.15010949	   -240.22722678	    816.98771249	      0.61428144	     10.46840988	    -45.00000000	     40.42479254	    -45.00000000	    -45.00000000	   2419.34037413	   -826.77633774	    148.21051061	    179.99999979	   1442.77858878	     52.71847451	     26.32615326	     12.84894847	     15.52957734	     38.27585180	    -37.25779849	    -45.00000000	    -45.00000000	   -995.27096218	   -454.67789877	    133.19225321	   -155.59550601	   2165.59889638	     28.84578080	      7.42936590	    -23.12493780
      3.28000000	    -40.46775530	    -10.84346544	     14.76005381	   -239.50114679	    816.56684664	      0.55773038	     10.56609147	    -45.00000000	     40.40971831	    -45.00000000	    -45.00000000	   2419.37353629	   -827.04042982	    147.95248436	    179.99999979	   1442.72680490	     52.79232981	     26.35574191	     12.81780029	     15.45603948	     38.16305666	    -37.48530651	    -45.00000000	    -45.00000000	   -995.25455778	   -454.45330728	    132.92826288	   -155.70587322	   2165.70305342	     29.34261025	      7.30916372	    -23.20350391
      3.29000000	    -40.37894431	    -10.94267029	     15.02855177	   -238.81117279	    816.22438284	      0.49826534	     10.41405110	    -45.00000000	     40.30704530	    -45.00000000	    -45.00000000	   2419.51284814	   -826.93844998	    148.13196372	    179.99999979	   1442.70665862	     52.88632938	     26.32442108	     12.71458824	     15.65954797	     38.35827118	    -37.59164047	    -45.00000000	    -45.00000000	   -995.21564778	   -454.60626537	    132.99842981	   -155.73103832	   2165.79750777	     29.92020585	      7.10499595	    -23.24224860
      3.30000000	    -40.32121350	    -10.91058395	     14.99671844	   -238.17072080	    815.97891457	      0.44333646	     10.43245641	    -45.00000000	     40.45300770	    -45.00000000	    -45.00000000	   2419.51485399	   -826.99332180	    148.12884769	    179.99999979	   1442.90826041	     52.93937331	     26.34295397	     12.60368333	     15.62396861	     38.25841960	    -37.70111024	    -45.00000000	    -45.00000000	   -995.30307714	   -454.78230399	    133.16964472	   -155.79683099	   2165.89811459	     30.40298646	      6.92788278	    -23.27428232
      3.31000000	    -40.37227092	    -10.79849543	     14.94757057	   -237.57489419	    815.84669350	      0.39721278	     10.49609036	    -45.00000000	     40.30606936	    -45.00000000	    -45.00000000	   2419.66803135	   -826.90885043	    148.00349569	    179.99999979	   1442.72107330	     53.05393296	     26.29760386	     12.56861844	     15.72281197	     38.41348458	    -37.58064451	    -45.00000000	    -45.00000000	   -995.23657240	   -454.52274707	    132.89503075	   -156.03833679	   2165.92790090	     30.86186039	      6.81930148	    -23.28901774
      3.32000000	    -40.32423854	    -10.66217124	     14.93314076	   -237.00831594	    815.84171703	      0.35947456	     10.43213164	    -45.00000000	     40.37702427	    -45.00000000	    -45.00000000	   2419.63359869	   -826.94347002	    148.02781722	    179.99999979	   1442.89302871	     53.11724323	     26.31975486	     12.50228427	     15.68710096	     38.34038499	    -37.74298838	    -45.00000000	    -45.00000000	   -995.29207612	   -454.68039366	    133.02643718	   -156.17274963	   2166.12499063	     31.34076032	      6.66087797	    -23.31791761
      3.33000000	    -40.31970427	    -10.33070538	     14.88276291	   -236.45560635	    815.96935919	      0.32559702	     10.37043786	    -45.00000000	     40.32841062	    -45.00000000	    -45.00000000	   2419.79143970	   -826.83226342	    148.21158419	    179.99999979	   1443.02571768	     53.13597850	     26.32479209	     12.44612936	     15.74449369	     38.41618437	    -38.14676907	    -45.00000000	    -45.00000000	   -995.34623117	   -454.83659804	    133.09111811	   -156.37876017	   2166.03086901	     31.69177221	      6.63438203	    -23.32562994
      3.34000000	    -40.36659983	    -10.35248334	     14.77877009	   -235.87754178	    816.22818376	      0.28684920	     10.31761948	    -45.00000000	     40.44543161	    -45.00000000	    -45.00000000	   2419.74370673	   -826.86471584	    147.94148061	    179.99999979	   1443.05111996	     53.16991101	     26.30639446	     12.43597823	     15.86981850	     38.43010091	    -37.88647881	    -45.00000000	    -45.00000000	   -995.24116253	   -454.62877543	    132.97541722	   -156.63325328	   2166.28710160	     31.97202992	      6.51678304	    -23.33966507
      3.35000000	    -40.45322070	    -10.16370385	     14.64755000	   -235.25944499	    816.60255149	      0.23560942	     10.28362149	    -45.00000000	     40.36684174	    -45.00000000	    -45.00000000	   2419.99475567	   -826.73908591	    147.99779035	    179.99999979	   1443.21668611	     53.15620923	     26.31304399	     12.39729145	     15.85675206	     38.43956144	    -38.17575993	    -45.00000000	    -45.00000000	   -995.15985521	   -454.78656869	    133.12995195	   -156.81668824	   2166.43015094	     32.22435723	      6.46479779	    -23.36367267
      3.36000000	    -40.50849830	     -9.93187034	     14.53392988	   -234.57266742	    817.07197852	      0.16493083	     10.20296524	    -45.00000000	     40.27537463	    -45.00000000	    -45.00000000	   2420.04259052	   -826.67277028	    147.86298788	    179.99999979	   1443.36615969	     53.13548346	     26.30499353	     12.37803836	     15.98678667	     38.48538324	    -38.32307089	    -45.00000000	    -45.00000000	   -995.15432865	   -454.74566852	    133.08975520	   -157.05994507	   2166.47820562	     32.41326038	      6.44104402	    -23.36945300
      3.37000000	    -40.56473601	     -9.78406154	     14.44741014	   -233.79256627	    817.61104901	      0.07122630	     10.09419257	    -45.00000000	     40.26515878	    -45.00000000	    -45.00000000	   2420.20887457	   -826.53862349	    147.87694534	    179.99999979	   1443.60049075	     53.08983018	     26.30216265	     12.33543730	     16.04249493	     38.50573511	    -38.49512875	    -45.00000000	    -45.00000000	   -995.08870526	   -454.79871215	    133.14929065	   -157.26025865	   2166.57193299	     32.55219210	      6.40747428	    -23.37654265
